<svg width="56" height="41" viewBox="0 0 56 41" fill="none" xmlns="http://www.w3.org/2000/svg">
<path d="M13.2725 38.0498L16.9543 39.9998L20.636 38.0498V35.1248L16.9543 33.1748L13.2725 35.1248V38.0498Z" stroke="white" stroke-width="2" stroke-miterlimit="10" stroke-linejoin="round"/>
<path d="M40.2722 38.0498L43.954 39.9998L47.6358 38.0498V35.1248L43.954 33.1748L40.2722 35.1248V38.0498Z" stroke="white" stroke-width="2" stroke-miterlimit="10" stroke-linejoin="round"/>
<path d="M3.45459 21.4751V31.2251H35.3635V11.7251H25.5453" stroke="white" stroke-width="2" stroke-miterlimit="10" stroke-linecap="round" stroke-linejoin="round"/>
<path d="M52.5455 35.125H55V31.225V27.325L46.4092 15.625H35.3638" stroke="white" stroke-width="2" stroke-miterlimit="10" stroke-linecap="round" stroke-linejoin="round"/>
<path d="M49.273 19.5249H40.2722V25.3749H53.4383" stroke="white" stroke-width="2" stroke-miterlimit="10" stroke-linecap="round" stroke-linejoin="round"/>
<path d="M55 31.2251H35.3638" stroke="white" stroke-width="2" stroke-miterlimit="10" stroke-linecap="round" stroke-linejoin="round"/>
<path d="M35.3635 35.125H25.5454" stroke="white" stroke-width="2" stroke-miterlimit="10" stroke-linecap="round" stroke-linejoin="round"/>
<path d="M8.36365 35.125H3.45459" stroke="white" stroke-width="2" stroke-miterlimit="10" stroke-linecap="round" stroke-linejoin="round"/>
<path d="M20.6362 14.1625L10.8181 18.55L1 14.1625V5.38751L10.8181 1L20.6362 5.38751V14.1625Z" stroke="white" stroke-width="2" stroke-miterlimit="10" stroke-linecap="round" stroke-linejoin="round"/>
<path d="M10.8184 5.875V11.725H15.7274" stroke="white" stroke-width="2" stroke-miterlimit="10" stroke-linecap="round" stroke-linejoin="round"/>
</svg>
