<svg width="53" height="52" viewBox="0 0 53 52" fill="none" xmlns="http://www.w3.org/2000/svg">
<path d="M25.9997 2.5C38.9787 2.5 49.5 13.0212 49.5 25.9996C49.5 38.9785 38.9787 49.5002 25.9997 49.5002C13.0214 49.5002 2.5 38.9785 2.5 25.9996C2.5 13.0212 13.0213 2.5 25.9997 2.5Z" fill="black" fill-opacity="0.01" stroke="white" stroke-width="3"/>
<g clip-path="url(#clip0_23120_271)">
<path d="M25.528 25.9622V27.906V36.5862H25.0001V27.906V25.9622V25.406V23.4622V20C25.0001 17.4327 27.1753 15.5 28.9456 15.5L29.3028 15.5L29.314 15.5L29.3334 15.5H29.3381L29.3383 15.5L29.3389 15.5L29.339 15.5L29.3391 15.5L29.3423 15.5L29.5893 15.5L29.9457 15.5V15.7404C28.7478 15.7757 27.4184 16.1157 26.4873 17.257C25.5963 18.3492 25.5275 19.6594 25.5269 20.3987V20.4008V23.4622V25.9622H25.528Z" fill="white" stroke="white" stroke-width="5"/>
</g>
<defs>
<clipPath id="clip0_23120_271">
<rect width="25" height="25" fill="white" transform="translate(14 13)"/>
</clipPath>
</defs>
</svg>
