<svg width="57" height="52" viewBox="0 0 57 52" fill="none" xmlns="http://www.w3.org/2000/svg">
<path d="M18.2402 1.00024C10.0943 1.00024 2.50024 6.79744 2.50024 14.8004V26.0004V36.0804C2.50024 44.0833 9.35443 51.0002 17.5002 51.0002H38.7602C46.906 51.0002 54.0002 44.0833 54.0002 36.0804V15.9204C54.0002 7.91744 46.6461 1.00024 38.5002 1.00024H18.2402ZM18.2402 3.60035H38.7602C45.5 4.5 51 9 51.3002 15.9204V36.0804C50.5 43 45 47.5 38.0002 48.0002H17.5002C10.5 47 6.5 42.5 5.70017 36.0804V15.9204C5.70017 9.13926 11 4 18.2402 3.60035ZM42.1802 10.3204C40.9262 10.3204 39.9002 11.3284 39.9002 12.5604C39.9002 13.7924 40.9262 14.8004 42.1802 14.8004C43.4342 14.8004 44.4602 13.7924 44.4602 12.5604C44.4602 11.3284 43.4342 10.3204 42.1802 10.3204ZM28.5002 13.6804C21.6083 13.6804 15.9602 19.2294 15.9602 26.0004C15.9602 32.7713 21.6083 38.3204 28.5002 38.3204C35.392 38.3204 41.0402 32.7713 41.0402 26.0004C41.0402 19.2294 35.392 13.6804 28.5002 13.6804ZM28.5002 15.9204C34.1483 15.9204 38.7602 20.4513 38.7602 26.0004C38.7602 31.5494 34.1483 36.0804 28.5002 36.0804C22.852 36.0804 18.2402 31.5494 18.2402 26.0004C18.2402 20.4513 22.852 15.9204 28.5002 15.9204Z" fill="white"/>
</svg>
