<svg width="54" height="32" viewBox="0 0 54 32" fill="none" xmlns="http://www.w3.org/2000/svg">
<path d="M20 8H22V7.25H23V5.75H22V5H20V5.75H19V7.25H20V8Z" fill="white"/>
<path d="M11.75 8H13.25V7.25H14V5.75H13.25V5H11.75V5.75H11V7.25H11.75V8Z" fill="white"/>
<path d="M28.75 8H30.25V7.25H31V5.75H30.25V5H28.75V5.75H28V7.25H28.75V8Z" fill="white"/>
<path d="M37 8H39V7.25H40V5.75H39V5H37V5.75H36V7.25H37V8Z" fill="white"/>
<path d="M5 8H3V10H5V8Z" fill="white"/>
<path d="M47 8H46V10H47V8Z" fill="white"/>
<path d="M53.8793 8.668C53.6907 7.94736 53.2788 7.28808 52.6903 6.76488C52.1017 6.24176 51.36 5.8756 50.5493 5.708C50.4998 5.6984 50.4503 5.6944 50.4008 5.6856V5.6C50.3989 4.11528 49.7345 2.69192 48.5534 1.64208C47.3723 0.59224 45.771 0.00168 44.1007 0H9.89877C8.22845 0.00168 6.62716 0.59224 5.44608 1.64208C4.26502 2.69192 3.60065 4.11528 3.59874 5.6V5.68C3.54924 5.6888 3.49974 5.6928 3.45024 5.7024C2.63961 5.87016 1.89802 6.2364 1.30949 6.75952C0.720954 7.28264 0.308978 7.94184 0.120229 8.6624C-0.0362369 9.254 -0.040035 9.86944 0.109132 10.4626C0.258298 11.0557 0.556551 11.6111 0.981533 12.0872C1.63651 12.8242 2.56352 13.3318 3.59874 13.52V25.6C3.59874 26.0243 3.78839 26.4313 4.12596 26.7314C4.46352 27.0314 4.92136 27.2 5.39875 27.2V31.2C5.39875 31.4122 5.49358 31.6157 5.66235 31.7657C5.83114 31.9157 6.06006 32 6.29876 32H9.89877C10.0878 32.0001 10.2719 31.9472 10.4253 31.849C10.5785 31.7508 10.6932 31.6122 10.7529 31.4528L12.3477 27.2H41.6509L43.2457 31.4528C43.3054 31.612 43.4199 31.7506 43.573 31.8488C43.7261 31.947 43.9101 31.9998 44.0989 32H47.6989C47.9376 32 48.1666 31.9157 48.3353 31.7657C48.5041 31.6157 48.5989 31.4122 48.5989 31.2V27.2C49.0763 27.2 49.5341 27.0314 49.8717 26.7314C50.2093 26.4313 50.399 26.0243 50.399 25.6V13.52C51.4343 13.3339 52.3623 12.8284 53.0189 12.0928C53.4439 11.6167 53.7422 11.0613 53.8911 10.4682C54.0402 9.87504 54.0361 9.25952 53.8793 8.668ZM9.89877 1.6H44.0989C45.292 1.60128 46.4357 2.02312 47.2794 2.77296C48.1229 3.52288 48.5975 4.53952 48.5989 5.6V5.6848C47.5822 5.86696 46.668 6.35656 46.0116 7.0704C45.3552 7.78424 44.9974 8.67808 44.9989 9.6V16H42.6985C43.0224 15.5158 43.1952 14.9634 43.1989 14.4C43.1989 13.5513 42.8197 12.7374 42.1445 12.1373C41.4694 11.5371 40.5537 11.2 39.5989 11.2H32.3989C31.4441 11.2 30.5284 11.5371 29.8533 12.1373C29.1781 12.7374 28.7989 13.5513 28.7989 14.4C28.8025 14.9634 28.9753 15.5158 29.2993 16H24.6984C25.0223 15.5158 25.1952 14.9634 25.1988 14.4C25.1988 13.5513 24.8196 12.7374 24.1444 12.1373C23.4693 11.5371 22.5536 11.2 21.5988 11.2H14.3988C13.444 11.2 12.5283 11.5371 11.8532 12.1373C11.178 12.7374 10.7988 13.5513 10.7988 14.4C10.8025 14.9634 10.9753 15.5158 11.2992 16H8.99877V9.6C9.00093 8.678 8.64327 7.78392 7.9868 7.07016C7.33034 6.35632 6.41568 5.86704 5.39875 5.6856V5.6C5.40018 4.53952 5.87475 3.52288 6.71836 2.77296C7.562 2.02312 8.70573 1.60128 9.89877 1.6ZM48.5989 22.4H5.39875V20C5.39875 19.3635 5.68322 18.753 6.18957 18.303C6.69592 17.8529 7.38272 17.6 8.09876 17.6H45.8989C46.615 17.6 47.3018 17.8529 47.8081 18.303C48.3145 18.753 48.5989 19.3635 48.5989 20V22.4ZM12.5988 14.4C12.5988 13.9757 12.7884 13.5687 13.126 13.2686C13.4636 12.9686 13.9214 12.8 14.3988 12.8H21.5988C22.0762 12.8 22.534 12.9686 22.8716 13.2686C23.2092 13.5687 23.3988 13.9757 23.3988 14.4C23.3988 14.8243 23.2092 15.2313 22.8716 15.5314C22.534 15.8314 22.0762 16 21.5988 16H14.3988C13.9214 16 13.4636 15.8314 13.126 15.5314C12.7884 15.2313 12.5988 14.8243 12.5988 14.4ZM30.5989 14.4C30.5989 13.9757 30.7885 13.5687 31.1261 13.2686C31.4637 12.9686 31.9215 12.8 32.3989 12.8H39.5989C40.0763 12.8 40.5341 12.9686 40.8717 13.2686C41.2093 13.5687 41.3989 13.9757 41.3989 14.4C41.3989 14.8243 41.2093 15.2313 40.8717 15.5314C40.5341 15.8314 40.0763 16 39.5989 16H32.3989C31.9215 16 31.4637 15.8314 31.1261 15.5314C30.7885 15.2313 30.5989 14.8243 30.5989 14.4ZM2.38644 11.0952C2.11792 10.7954 1.93407 10.4428 1.85025 10.067C1.76644 9.69104 1.78511 9.3028 1.90468 8.93464C2.02427 8.56648 2.24129 8.22912 2.53759 7.95072C2.8339 7.6724 3.20088 7.4612 3.60784 7.33472C4.0148 7.20832 4.44991 7.17032 4.87676 7.224C5.30361 7.2776 5.70981 7.42136 6.06138 7.64312C6.41295 7.86488 6.69966 8.15832 6.89754 8.49872C7.09541 8.8392 7.1987 9.2168 7.19876 9.6V16.08C6.54387 16.2034 5.92865 16.4563 5.39875 16.82V12.8C5.39875 12.5878 5.30393 12.3843 5.13515 12.2343C4.96636 12.0843 4.73745 12 4.49875 12C4.09268 12.0006 3.69171 11.9195 3.3259 11.7629C2.96008 11.6062 2.63891 11.3779 2.38644 11.0952ZM9.24987 30.4H7.19876V27.2H10.4496L9.24987 30.4ZM46.7989 30.4H44.7478L43.5472 27.2H46.7989V30.4ZM5.39875 25.6V24H48.5989V25.6H5.39875ZM51.6122 11.0952C51.3594 11.3778 51.0381 11.6061 50.6722 11.7628C50.3063 11.9194 49.9051 12.0006 49.499 12C49.2603 12 49.0313 12.0843 48.8626 12.2343C48.6938 12.3843 48.5989 12.5878 48.5989 12.8V16.8208C48.069 16.4571 47.4539 16.2042 46.7989 16.0808V9.6C46.7992 9.21688 46.9026 8.83944 47.1005 8.49912C47.2984 8.1588 47.5852 7.86552 47.9367 7.64384C48.2883 7.42224 48.6943 7.27856 49.1211 7.22496C49.5478 7.17136 49.9829 7.20936 50.3897 7.33568C50.7966 7.46208 51.1635 7.6732 51.4598 7.95144C51.7561 8.22968 51.9732 8.56688 52.0928 8.93496C52.2125 9.30296 52.2313 9.69112 52.1477 10.067C52.0641 10.4428 51.8804 10.7954 51.6122 11.0952Z" fill="white"/>
</svg>
