<svg width="52" height="51" viewBox="0 0 52 51" fill="none" xmlns="http://www.w3.org/2000/svg">
<path d="M11.5 46.1887C15.5177 48.5599 20.6882 50.9817 25.4081 50.9817C39.7106 50.9817 51.5002 39.5352 51.5002 25.4907C51.5002 11.4625 39.7272 0 25.4081 0C11.1326 0 0 10.0012 0 24.0566C0 28.7476 1.08273 35.0099 3.5 38.9534L1.5 49.0755L11.5 46.1887ZM2.5 24.0566C2.5 11.6482 12.8124 2.40566 25.4081 2.40566C38.1157 2.40566 49 13.0823 49 25.4907C49 37.8994 37.7076 48.5943 25 48.5943C20.6273 48.5943 16.786 46.7794 13.1206 44.4806L11.5 43.2836L4.5 45.6893L6 39.4528L6.5 37.9911C3.5 34.6232 2.5 28.4106 2.5 24.0566Z" fill="white"/>
<path d="M12.6576 20.7938C13.1607 23.3848 14.654 28.3684 19.0017 32.6325C23.3494 36.8966 28.4307 38.3616 31.073 38.855C34.0984 39.4199 38.5382 39.5052 40.7079 37.3772L41.9175 36.1908C42.5281 35.592 42.8645 34.7955 42.8645 33.9484C42.8645 33.1014 42.5281 32.3053 41.9175 31.7064L37.0802 26.9622C36.4693 26.3629 35.6576 26.0334 34.7939 26.0334C33.9302 26.0334 33.1185 26.3629 32.5075 26.9622L31.2983 28.1481C30.5596 28.8726 29.1651 28.8757 28.4208 28.1571L23.5958 23.2264C23.5887 23.219 23.5815 23.2116 23.574 23.2046C22.8341 22.479 22.8341 21.298 23.574 20.5724L24.7832 19.3864C26.0472 18.1467 26.0472 16.1409 24.7832 14.9016L19.9459 10.1574C18.6855 8.92118 16.6344 8.92118 15.3736 10.1574L14.1644 11.3437V11.3433C12.4327 13.0421 11.8554 16.6631 12.6576 20.7938V20.7938ZM16.3182 13.4561C17.5878 12.2394 17.5199 12.2161 17.66 12.2161C17.708 12.2161 17.756 12.234 17.7925 12.2698C22.8896 17.2958 22.6849 17.0004 22.6849 17.1444C22.6849 17.1946 22.6663 17.2386 22.6302 17.2744L21.4206 18.4603C19.4944 20.3494 19.4869 23.4073 21.4083 25.305L26.236 30.2388C26.2436 30.2458 26.2507 30.2532 26.2583 30.2605C28.184 32.1492 31.5201 32.1555 33.4521 30.2605L34.6614 29.0746C34.7344 29.003 34.8534 29.003 34.9264 29.0746C40.0236 34.1002 39.8188 33.8048 39.8188 33.9488C39.8188 33.9994 39.8002 34.043 39.7641 34.0788L38.5545 35.2647C37.7257 36.0776 35.0859 36.564 31.6427 35.9208C29.3448 35.4912 24.9264 34.2189 21.1555 30.5205C17.3846 26.8221 16.0873 22.4887 15.6497 20.235C14.9936 16.858 15.4895 14.2686 16.3182 13.4561V13.4561Z" fill="white"/>
</svg>
