<svg width="32" height="32" viewBox="0 0 32 32" fill="none" xmlns="http://www.w3.org/2000/svg">
<g clip-path="url(#clip0_25728_5)">
<path d="M1.12503 15.8648C1.12431 18.4845 1.81187 21.0423 3.11926 23.2969L1 31L8.91865 28.933C11.1089 30.12 13.5628 30.7419 16.0565 30.7421H16.0631C24.2953 30.7421 30.9965 24.0733 31 15.8766C31.0016 11.9046 29.4492 8.16969 26.6288 5.35973C23.8089 2.55 20.0584 1.00181 16.0625 1C7.82928 1 1.12855 7.66841 1.12516 15.8648" fill="url(#paint0_linear_25728_5)"/>
<path d="M0.13375 15.856C0.132875 18.6506 0.86625 21.3787 2.2605 23.7834L0 32L8.44637 29.7953C10.7736 31.0585 13.3939 31.7245 16.0601 31.7255H16.067C24.848 31.7255 31.9963 24.6114 32 15.8687C32.0015 11.6316 30.3455 7.64736 27.3375 4.65016C24.3291 1.65334 20.3291 0.00174219 16.067 0C7.2845 0 0.13725 7.11313 0.13375 15.856ZM5.16388 23.3693L4.8485 22.8709C3.52275 20.7723 2.823 18.3472 2.824 15.857C2.82675 8.59014 8.76725 2.678 16.072 2.678C19.6095 2.67949 22.934 4.05234 25.4345 6.54318C27.9349 9.03427 29.3108 12.3457 29.3099 15.8677C29.3066 23.1345 23.366 29.0474 16.067 29.0474H16.0618C13.6851 29.0461 11.3542 28.4107 9.3215 27.21L8.83775 26.9244L3.8255 28.2326L5.16388 23.3693Z" fill="url(#paint1_linear_25728_5)"/>
<path d="M12.0678 8.74328C11.7729 8.03653 11.4625 8.02227 11.182 8.00988C10.9524 7.99921 10.6898 8.00001 10.4276 8.00001C10.165 8.00001 9.73848 8.1065 9.37793 8.53098C9.01701 8.95585 8 9.98259 8 12.0709C8 14.1591 9.41068 16.1774 9.60733 16.4609C9.80423 16.7438 12.3307 21.1664 16.332 22.8678C19.6574 24.2817 20.3341 24.0005 21.0558 23.9296C21.7777 23.8589 23.385 22.9031 23.7129 21.9119C24.0411 20.9209 24.0411 20.0714 23.9427 19.8939C23.8443 19.717 23.5818 19.6108 23.1881 19.3987C22.7944 19.1865 20.8589 18.1595 20.4981 18.0178C20.1372 17.8763 19.8748 17.8056 19.6123 18.2306C19.3497 18.655 18.5959 19.6108 18.3661 19.8939C18.1366 20.1776 17.9068 20.213 17.5132 20.0007C17.1193 19.7877 15.8515 19.34 14.3474 17.8941C13.1771 16.769 12.387 15.3797 12.1574 14.9546C11.9277 14.5303 12.1328 14.3003 12.3302 14.0888C12.5071 13.8986 12.724 13.5931 12.921 13.3454C13.1173 13.0975 13.1828 12.9206 13.3141 12.6375C13.4455 12.3542 13.3797 12.1063 13.2814 11.894C13.1828 11.6817 12.4178 9.58251 12.0678 8.74328Z" fill="white"/>
</g>
<defs>
<linearGradient id="paint0_linear_25728_5" x1="1501" y1="3001" x2="1501" y2="1" gradientUnits="userSpaceOnUse">
<stop stop-color="#1FAF38"/>
<stop offset="1" stop-color="#60D669"/>
</linearGradient>
<linearGradient id="paint1_linear_25728_5" x1="1600" y1="3200" x2="1600" y2="0" gradientUnits="userSpaceOnUse">
<stop stop-color="#F9F9F9"/>
<stop offset="1" stop-color="white"/>
</linearGradient>
<clipPath id="clip0_25728_5">
<rect width="32" height="32" fill="white"/>
</clipPath>
</defs>
</svg>
